<?xml version="1.0" encoding="UTF-8" standalone="no"?>
<svg
   version="1.1"
   viewBox="0 0 583.99997 113"
   fill="none"
   stroke="none"
   stroke-linecap="square"
   stroke-miterlimit="10"
   id="svg180"
   sodipodi:docname="logo.svg"
   width="584"
   height="113"
   inkscape:version="1.2.2 (b0a8486541, 2022-12-01)"
   xmlns:inkscape="http://www.inkscape.org/namespaces/inkscape"
   xmlns:sodipodi="http://sodipodi.sourceforge.net/DTD/sodipodi-0.dtd"
   xmlns="http://www.w3.org/2000/svg"
   xmlns:svg="http://www.w3.org/2000/svg">
  <defs
     id="defs184">
    <clipPath
       clipPathUnits="userSpaceOnUse"
       id="clipPath1601">
      <rect
         style="fill:#219bff;fill-opacity:1;stroke:none;stroke-width:0.3;stop-color:#000000"
         id="rect1603"
         width="108.82456"
         height="108.82456"
         x="752.59906"
         y="181.33586" />
    </clipPath>
  </defs>
  <sodipodi:namedview
     id="namedview182"
     pagecolor="#505050"
     bordercolor="#ffffff"
     borderopacity="1"
     inkscape:showpageshadow="0"
     inkscape:pageopacity="0"
     inkscape:pagecheckerboard="1"
     inkscape:deskcolor="#505050"
     showgrid="false"
     inkscape:zoom="0.8162453"
     inkscape:cx="393.87669"
     inkscape:cy="165.39146"
     inkscape:window-width="1920"
     inkscape:window-height="1026"
     inkscape:window-x="0"
     inkscape:window-y="32"
     inkscape:window-maximized="1"
     inkscape:current-layer="svg180" />
  <g
     aria-label="VOXEL"
     id="text344"
     style="font-size:159.848px;line-height:1.25;font-family:'URW Gothic';-inkscape-font-specification:'URW Gothic';letter-spacing:0px;word-spacing:0px;stroke-width:3.9962">
    <path
       d="M 71.475884,2.5073727 H 94.653845 L 69.39786,111.20402 H 28.636618 L 3.3806329,2.5073727 H 26.558594 L 45.420659,92.022257 h 7.19316 z"
       style="font-weight:bold;font-family:'Titillium Web';-inkscape-font-specification:'Titillium Web';fill:#000000"
       id="path1176" />
    <path
       d="m 129.98032,85.628336 q 4.79544,8.312097 17.74313,8.312097 12.94769,0 17.58328,-8.312097 4.79544,-8.471944 4.79544,-28.133249 0,-19.821153 -4.79544,-28.772641 -4.79544,-8.951488 -17.58328,-8.951488 -12.78784,0 -17.58328,8.951488 -4.79544,8.951488 -4.79544,28.772641 0,19.661305 4.63559,28.133249 z m 52.58999,14.066625 q -10.07042,13.427229 -34.84686,13.427229 -24.77644,0 -35.00672,-13.427229 -10.07042,-13.58708 -10.07042,-42.359722 0,-28.772641 10.07042,-42.679418 10.23028,-14.06662434 35.00672,-14.06662434 24.77644,0 34.84686,14.06662434 10.23028,13.906777 10.23028,42.679418 0,28.772642 -10.23028,42.359722 z"
       style="font-weight:bold;font-family:'Titillium Web';-inkscape-font-specification:'Titillium Web';fill:#000000"
       id="path1178" />
    <path
       d="M 223.0119,2.5073727 243.15275,42.469375 263.77314,2.5073727 h 22.85827 L 255.3012,57.974631 286.63141,111.20402 H 262.17466 L 242.03381,73.639736 221.41342,111.20402 H 198.55515 L 229.88536,59.093567 198.55515,2.5073727 Z"
       style="font-weight:bold;font-family:'Titillium Web';-inkscape-font-specification:'Titillium Web';fill:#000000"
       id="path1180" />
    <path
       d="M 299.89883,111.20402 V 2.5073727 h 70.33312 V 21.689134 h -48.2741 v 25.415833 h 38.68322 v 18.862065 h -38.68322 v 26.055225 h 48.2741 v 19.181763 z"
       style="font-weight:bold;font-family:'Titillium Web';-inkscape-font-specification:'Titillium Web';fill:#000000"
       id="path1182" />
    <path
       d="M 450.31594,111.20402 H 388.45477 V 2.5073727 h 22.05902 V 91.702561 h 39.80215 z"
       style="font-weight:bold;font-family:'Titillium Web';-inkscape-font-specification:'Titillium Web';fill:#000000"
       id="path1184" />
  </g>
  <g
     id="g1674"
     transform="matrix(1.0383683,0,0,1.0383683,-310.47502,-188.2934)">
    <rect
       style="fill:#219bff;fill-opacity:1;stroke:none;stroke-width:0.3;stop-color:#000000"
       id="rect1705-6"
       width="108.82456"
       height="108.82456"
       x="752.59906"
       y="181.33585" />
    <g
       id="g1577"
       clip-path="url(#clipPath1601)">
      <path
         style="fill:#005499;fill-opacity:1;stroke:none;stroke-width:0.264583px;stroke-linecap:butt;stroke-linejoin:miter;stroke-opacity:1"
         d="m 752.59902,214.46247 50.36112,17.67785 -5.0583,58.0201 h -45.54052 z"
         id="path2071-7" />
      <path
         style="fill:#70bcff;fill-opacity:1;stroke:none;stroke-width:0.264583px;stroke-linecap:butt;stroke-linejoin:miter;stroke-opacity:1"
         d="m 802.96014,232.14032 44.0708,-23.38287 -11.7988,66.23846 -15.3944,15.29681 -21.9359,-0.1323 z"
         id="path2073-5" />
      <path
         style="fill:#0082ec;fill-opacity:1;stroke:none;stroke-width:0.264583px;stroke-linecap:butt;stroke-linejoin:miter;stroke-opacity:1"
         d="m 752.2286,201.34496 0.37042,13.11751 50.36112,17.67785 44.0708,-23.38287 -62.6151,-16.15718 z"
         id="path2075-3" />
    </g>
  </g>
</svg>
